<?xml version="1.0" encoding="iso-8859-1"?>
<!-- Generator: Adobe Illustrator 19.0.0, SVG Export Plug-In . SVG Version: 6.00 Build 0)  -->
<svg version="1.1" id="Capa_1" xmlns="http://www.w3.org/2000/svg" xmlns:xlink="http://www.w3.org/1999/xlink" x="0px" y="0px"
	 viewBox="0 0 512 512" style="enable-background:new 0 0 512 512;" xml:space="preserve">
<path style="fill:#FFDB8B;" d="M326,340.433C326,379.406,294.66,411,256,411s-70-31.594-70-70.567s31.34-70.567,70-70.567
	S326,301.46,326,340.433z M70.001,249.704c-38.66,0-70,31.594-70,70.567s31.34,70.567,70,70.567s70-31.594,70-70.567
	S108.661,249.704,70.001,249.704z M441.999,249.704c-38.66,0-70,31.594-70,70.567s31.34,70.567,70,70.567s70-31.594,70-70.567
	S480.659,249.704,441.999,249.704z"/>
<path style="fill:#FFC261;" d="M300.148,395.185C288.103,405.068,272.741,411,256,411c-38.66,0-70-31.594-70-70.567
	c0-31.776,20.836-58.64,49.484-67.481c-15.771,12.939-25.851,32.656-25.851,54.752c0,38.973,31.34,70.567,70,70.567
	C286.772,398.272,293.659,397.188,300.148,395.185z M93.634,378.11c-38.66,0-70-31.594-70-70.567
	c0-22.096,10.081-41.813,25.851-54.752c-28.648,8.841-49.484,35.705-49.484,67.481c0,38.973,31.34,70.567,70,70.567
	c16.741,0,32.103-5.932,44.148-15.815C107.66,377.026,100.773,378.11,93.634,378.11z M465.632,378.11c-38.66,0-70-31.594-70-70.567
	c0-22.096,10.081-41.813,25.851-54.752c-28.648,8.841-49.484,35.705-49.484,67.481c0,38.973,31.34,70.567,70,70.567
	c16.741,0,32.103-5.932,44.148-15.815C479.658,377.026,472.771,378.11,465.632,378.11z"/>
<path style="fill:#B7B8B4;" d="M263.5,131.489v127.923c0,4.176-3.358,7.561-7.5,7.561s-7.5-3.385-7.5-7.561V131.489
	c0-4.176,3.358-7.561,7.5-7.561S263.5,127.313,263.5,131.489z M70.001,115.646c-4.142,0-7.5,3.384-7.5,7.561V239.25
	c0,4.176,3.358,7.561,7.5,7.561s7.5-3.385,7.5-7.561V123.207C77.501,119.03,74.143,115.646,70.001,115.646z M441.999,115.646
	c-4.142,0-7.5,3.384-7.5,7.561V239.25c0,4.176,3.358,7.561,7.5,7.561s7.5-3.385,7.5-7.561V123.207
	C449.499,119.03,446.141,115.646,441.999,115.646z"/>
<path style="fill:#F4925A;" d="M273.448,263.458c-0.479-3.318-3.066-5.92-6.357-6.396c-8.044-1.164-16.016-1.064-24.036,0.297
	c-3.261,0.552-5.778,3.193-6.195,6.5l-8.946,70.86c-1.02,8.077,1.458,16.214,6.796,22.325c5.338,6.109,13.033,9.614,21.11,9.614
	c8.173,0,15.928-3.574,21.275-9.805c5.348-6.232,7.74-14.483,6.563-22.636L273.448,263.458z M265.75,346.96
	c-2.496,2.908-6.116,4.577-9.931,4.577c-3.826,0-7.325-1.594-9.854-4.488s-3.655-6.595-3.172-10.42l8.212-65.046
	c2.834-0.233,5.61-0.268,8.441-0.109l9.367,64.92C269.364,340.2,268.247,344.051,265.75,346.96z M87.449,243.295
	c-0.479-3.317-3.066-5.92-6.357-6.396c-8.043-1.164-16.016-1.064-24.036,0.297c-3.261,0.552-5.778,3.194-6.195,6.5l-8.946,70.86
	c-1.02,8.078,1.458,16.214,6.796,22.325c5.338,6.11,13.033,9.614,21.11,9.614c8.173,0,15.928-3.574,21.275-9.805
	c5.348-6.231,7.74-14.482,6.563-22.636L87.449,243.295z M79.751,326.798c-2.496,2.908-6.116,4.577-9.931,4.577
	c-3.826,0-7.325-1.594-9.854-4.488c-2.529-2.895-3.655-6.595-3.172-10.421l8.212-65.046c2.834-0.233,5.609-0.269,8.441-0.109
	l9.367,64.92C83.365,320.038,82.247,323.889,79.751,326.798z M469.657,314.056l-10.21-70.76c-0.479-3.317-3.066-5.92-6.357-6.396
	c-8.043-1.164-16.016-1.064-24.036,0.297c-3.261,0.552-5.778,3.194-6.195,6.5l-8.946,70.86c-1.02,8.078,1.457,16.214,6.796,22.325
	c5.338,6.11,13.033,9.614,21.11,9.614c8.173,0,15.928-3.574,21.275-9.805C468.441,330.46,470.833,322.209,469.657,314.056z
	 M451.75,326.798c-2.496,2.908-6.116,4.577-9.931,4.577c-3.826,0-7.325-1.594-9.854-4.488c-2.529-2.895-3.655-6.595-3.172-10.421
	l8.212-65.046c2.834-0.233,5.609-0.269,8.441-0.109l9.367,64.92C455.363,320.038,454.246,323.889,451.75,326.798z"/>
<g>
	<path style="fill:#9D9F9C;" d="M276.741,249.973v5.54c0,11.433-9.268,20.7-20.7,20.7h-0.081c-11.432,0-20.7-9.268-20.7-20.7v-5.54
		c0-5.716,4.634-10.35,10.35-10.35h20.781C272.107,239.623,276.741,244.257,276.741,249.973z M80.392,219.461H59.61
		c-5.716,0-10.35,4.634-10.35,10.35v5.541c0,11.432,9.268,20.7,20.7,20.7h0.081c11.432,0,20.7-9.268,20.7-20.7v-5.541
		C90.742,224.095,86.108,219.461,80.392,219.461z M452.39,219.461h-20.781c-5.716,0-10.35,4.634-10.35,10.35v5.54
		c0,11.433,9.268,20.7,20.7,20.7h0.081c11.432,0,20.7-9.268,20.7-20.7v-5.541C462.74,224.095,458.106,219.461,452.39,219.461z"/>
	<path style="fill:#9D9F9C;" d="M505.938,115.983c-74.056,14.602-160.483,22.32-249.938,22.32s-175.882-7.718-249.938-22.32
		c-4.065-0.801-6.716-4.772-5.921-8.871c0.795-4.098,4.733-6.776,8.8-5.969C82.064,115.56,167.496,123.181,256,123.181
		s173.936-7.621,247.059-22.038c4.063-0.802,8.005,1.871,8.8,5.969C512.654,111.211,510.004,115.182,505.938,115.983z"/>
</g>
<g>
</g>
<g>
</g>
<g>
</g>
<g>
</g>
<g>
</g>
<g>
</g>
<g>
</g>
<g>
</g>
<g>
</g>
<g>
</g>
<g>
</g>
<g>
</g>
<g>
</g>
<g>
</g>
<g>
</g>
</svg>
