<?xml version="1.0" standalone="no"?>
<svg xmlns:xlink="http://www.w3.org/1999/xlink" id="wave" style="transform:rotate(0deg); transition: 0.3s" viewBox="0 0 1440 100" version="1.1" xmlns="http://www.w3.org/2000/svg"><defs><linearGradient id="sw-gradient-0" x1="0" x2="0" y1="1" y2="0"><stop stop-color="rgba(255, 217, 0, 0.63)" offset="0%"/><stop stop-color="rgba(255, 217, 0, 0.8235294117647058)" offset="100%"/></linearGradient></defs><path style="transform:translate(0, 0px); opacity:1" fill="url(#sw-gradient-0)" d="M0,0L34.3,10C68.6,20,137,40,206,40C274.3,40,343,20,411,16.7C480,13,549,27,617,40C685.7,53,754,67,823,70C891.4,73,960,67,1029,60C1097.1,53,1166,47,1234,46.7C1302.9,47,1371,53,1440,61.7C1508.6,70,1577,80,1646,75C1714.3,70,1783,50,1851,38.3C1920,27,1989,23,2057,31.7C2125.7,40,2194,60,2263,71.7C2331.4,83,2400,87,2469,86.7C2537.1,87,2606,83,2674,75C2742.9,67,2811,53,2880,50C2948.6,47,3017,53,3086,61.7C3154.3,70,3223,80,3291,75C3360,70,3429,50,3497,35C3565.7,20,3634,10,3703,11.7C3771.4,13,3840,27,3909,36.7C3977.1,47,4046,53,4114,56.7C4182.9,60,4251,60,4320,51.7C4388.6,43,4457,27,4526,23.3C4594.3,20,4663,30,4731,35C4800,40,4869,40,4903,40L4937.1,40L4937.1,100L4902.9,100C4868.6,100,4800,100,4731,100C4662.9,100,4594,100,4526,100C4457.1,100,4389,100,4320,100C4251.4,100,4183,100,4114,100C4045.7,100,3977,100,3909,100C3840,100,3771,100,3703,100C3634.3,100,3566,100,3497,100C3428.6,100,3360,100,3291,100C3222.9,100,3154,100,3086,100C3017.1,100,2949,100,2880,100C2811.4,100,2743,100,2674,100C2605.7,100,2537,100,2469,100C2400,100,2331,100,2263,100C2194.3,100,2126,100,2057,100C1988.6,100,1920,100,1851,100C1782.9,100,1714,100,1646,100C1577.1,100,1509,100,1440,100C1371.4,100,1303,100,1234,100C1165.7,100,1097,100,1029,100C960,100,891,100,823,100C754.3,100,686,100,617,100C548.6,100,480,100,411,100C342.9,100,274,100,206,100C137.1,100,69,100,34,100L0,100Z"/></svg>