<?xml version="1.0" standalone="no"?>
<svg xmlns:xlink="http://www.w3.org/1999/xlink" id="wave" style="transform:rotate(0deg); transition: 0.3s" viewBox="0 0 1440 100" version="1.1" xmlns="http://www.w3.org/2000/svg"><defs><linearGradient id="sw-gradient-0" x1="0" x2="0" y1="1" y2="0"><stop stop-color="rgba(255, 217, 0, 0.63)" offset="0%"/><stop stop-color="rgba(255, 217, 0, 0.8235294117647058)" offset="100%"/></linearGradient></defs><path style="transform:translate(0, 0px); opacity:1" fill="url(#sw-gradient-0)" d="M0,10L15,15C30,20,60,30,90,33.3C120,37,150,33,180,31.7C210,30,240,30,270,40C300,50,330,70,360,78.3C390,87,420,83,450,71.7C480,60,510,40,540,38.3C570,37,600,53,630,63.3C660,73,690,77,720,66.7C750,57,780,33,810,35C840,37,870,63,900,71.7C930,80,960,70,990,66.7C1020,63,1050,67,1080,56.7C1110,47,1140,23,1170,23.3C1200,23,1230,47,1260,60C1290,73,1320,77,1350,76.7C1380,77,1410,73,1440,73.3C1470,73,1500,77,1530,66.7C1560,57,1590,33,1620,26.7C1650,20,1680,30,1710,40C1740,50,1770,60,1800,65C1830,70,1860,70,1890,70C1920,70,1950,70,1980,58.3C2010,47,2040,23,2070,20C2100,17,2130,33,2145,41.7L2160,50L2160,100L2145,100C2130,100,2100,100,2070,100C2040,100,2010,100,1980,100C1950,100,1920,100,1890,100C1860,100,1830,100,1800,100C1770,100,1740,100,1710,100C1680,100,1650,100,1620,100C1590,100,1560,100,1530,100C1500,100,1470,100,1440,100C1410,100,1380,100,1350,100C1320,100,1290,100,1260,100C1230,100,1200,100,1170,100C1140,100,1110,100,1080,100C1050,100,1020,100,990,100C960,100,930,100,900,100C870,100,840,100,810,100C780,100,750,100,720,100C690,100,660,100,630,100C600,100,570,100,540,100C510,100,480,100,450,100C420,100,390,100,360,100C330,100,300,100,270,100C240,100,210,100,180,100C150,100,120,100,90,100C60,100,30,100,15,100L0,100Z"/></svg>