<?xml version="1.0" standalone="no"?>
<svg xmlns:xlink="http://www.w3.org/1999/xlink" id="wave" style="transform:rotate(0deg); transition: 0.3s" viewBox="0 0 1440 100" version="1.1" xmlns="http://www.w3.org/2000/svg"><defs><linearGradient id="sw-gradient-0" x1="0" x2="0" y1="1" y2="0"><stop stop-color="rgba(255, 217, 0, 0.63)" offset="0%"/><stop stop-color="rgba(255, 217, 0, 0.8235294117647058)" offset="100%"/></linearGradient></defs><path style="transform:translate(0, 0px); opacity:1" fill="url(#sw-gradient-0)" d="M0,60L1440,50L2880,80L4320,60L5760,40L7200,20L8640,0L10080,10L11520,30L12960,60L14400,50L15840,40L17280,0L18720,80L20160,0L21600,70L23040,80L24480,20L25920,20L27360,90L28800,0L30240,0L31680,80L33120,20L34560,50L34560,100L33120,100L31680,100L30240,100L28800,100L27360,100L25920,100L24480,100L23040,100L21600,100L20160,100L18720,100L17280,100L15840,100L14400,100L12960,100L11520,100L10080,100L8640,100L7200,100L5760,100L4320,100L2880,100L1440,100L0,100Z"/></svg>