<?xml version="1.0" standalone="no"?><svg xmlns="http://www.w3.org/2000/svg" viewBox="0 0 1440 320"><path fill="#ffd700" fill-opacity="0.8" d="M0,128L26.7,133.3C53.3,139,107,149,160,181.3C213.3,213,267,267,320,282.7C373.3,299,427,277,480,245.3C533.3,213,587,171,640,170.7C693.3,171,747,213,800,229.3C853.3,245,907,235,960,234.7C1013.3,235,1067,245,1120,245.3C1173.3,245,1227,235,1280,245.3C1333.3,256,1387,288,1413,304L1440,320L1440,320L1413.3,320C1386.7,320,1333,320,1280,320C1226.7,320,1173,320,1120,320C1066.7,320,1013,320,960,320C906.7,320,853,320,800,320C746.7,320,693,320,640,320C586.7,320,533,320,480,320C426.7,320,373,320,320,320C266.7,320,213,320,160,320C106.7,320,53,320,27,320L0,320Z"></path></svg>