<?xml version="1.0" standalone="no"?><svg xmlns="http://www.w3.org/2000/svg" viewBox="0 0 1440 320"><path fill="#ffd700" fill-opacity="0.8" d="M0,64L21.8,101.3C43.6,139,87,213,131,229.3C174.5,245,218,203,262,181.3C305.5,160,349,160,393,181.3C436.4,203,480,245,524,261.3C567.3,277,611,267,655,224C698.2,181,742,107,785,117.3C829.1,128,873,224,916,245.3C960,267,1004,213,1047,176C1090.9,139,1135,117,1178,101.3C1221.8,85,1265,75,1309,106.7C1352.7,139,1396,213,1418,250.7L1440,288L1440,320L1418.2,320C1396.4,320,1353,320,1309,320C1265.5,320,1222,320,1178,320C1134.5,320,1091,320,1047,320C1003.6,320,960,320,916,320C872.7,320,829,320,785,320C741.8,320,698,320,655,320C610.9,320,567,320,524,320C480,320,436,320,393,320C349.1,320,305,320,262,320C218.2,320,175,320,131,320C87.3,320,44,320,22,320L0,320Z"></path></svg>