<?xml version="1.0" standalone="no"?>
<svg xmlns:xlink="http://www.w3.org/1999/xlink" id="wave" style="transform:rotate(0deg); transition: 0.3s" viewBox="0 0 1440 120" version="1.1" xmlns="http://www.w3.org/2000/svg"><defs><linearGradient id="sw-gradient-0" x1="0" x2="0" y1="1" y2="0"><stop stop-color="rgba(255, 217, 0, 0.63)" offset="0%"/><stop stop-color="rgba(255, 217, 0, 0.8235294117647058)" offset="100%"/></linearGradient></defs><path style="transform:translate(0, 0px); opacity:1" fill="url(#sw-gradient-0)" d="M0,12L80,18C160,24,320,36,480,40C640,44,800,40,960,38C1120,36,1280,36,1440,48C1600,60,1760,84,1920,94C2080,104,2240,100,2400,86C2560,72,2720,48,2880,46C3040,44,3200,64,3360,76C3520,88,3680,92,3840,80C4000,68,4160,40,4320,42C4480,44,4640,76,4800,86C4960,96,5120,84,5280,80C5440,76,5600,80,5760,68C5920,56,6080,28,6240,28C6400,28,6560,56,6720,72C6880,88,7040,92,7200,92C7360,92,7520,88,7680,88C7840,88,8000,92,8160,80C8320,68,8480,40,8640,32C8800,24,8960,36,9120,48C9280,60,9440,72,9600,78C9760,84,9920,84,10080,84C10240,84,10400,84,10560,70C10720,56,10880,28,11040,24C11200,20,11360,40,11440,50L11520,60L11520,120L11440,120C11360,120,11200,120,11040,120C10880,120,10720,120,10560,120C10400,120,10240,120,10080,120C9920,120,9760,120,9600,120C9440,120,9280,120,9120,120C8960,120,8800,120,8640,120C8480,120,8320,120,8160,120C8000,120,7840,120,7680,120C7520,120,7360,120,7200,120C7040,120,6880,120,6720,120C6560,120,6400,120,6240,120C6080,120,5920,120,5760,120C5600,120,5440,120,5280,120C5120,120,4960,120,4800,120C4640,120,4480,120,4320,120C4160,120,4000,120,3840,120C3680,120,3520,120,3360,120C3200,120,3040,120,2880,120C2720,120,2560,120,2400,120C2240,120,2080,120,1920,120C1760,120,1600,120,1440,120C1280,120,1120,120,960,120C800,120,640,120,480,120C320,120,160,120,80,120L0,120Z"/></svg>