<?xml version="1.0" standalone="no"?>
<svg xmlns:xlink="http://www.w3.org/1999/xlink" id="wave" style="transform:rotate(0deg); transition: 0.3s" viewBox="0 0 1440 180" version="1.1" xmlns="http://www.w3.org/2000/svg"><defs><linearGradient id="sw-gradient-0" x1="0" x2="0" y1="1" y2="0"><stop stop-color="rgba(255, 217, 0, 0.63)" offset="0%"/><stop stop-color="rgba(255, 217, 0, 0.8235294117647058)" offset="100%"/></linearGradient></defs><path style="transform:translate(0, 0px); opacity:1" fill="url(#sw-gradient-0)" d="M0,18L15,27C30,36,60,54,90,60C120,66,150,60,180,57C210,54,240,54,270,72C300,90,330,126,360,141C390,156,420,150,450,129C480,108,510,72,540,69C570,66,600,96,630,114C660,132,690,138,720,120C750,102,780,60,810,63C840,66,870,114,900,129C930,144,960,126,990,120C1020,114,1050,120,1080,102C1110,84,1140,42,1170,42C1200,42,1230,84,1260,108C1290,132,1320,138,1350,138C1380,138,1410,132,1440,132C1470,132,1500,138,1530,120C1560,102,1590,60,1620,48C1650,36,1680,54,1710,72C1740,90,1770,108,1800,117C1830,126,1860,126,1890,126C1920,126,1950,126,1980,105C2010,84,2040,42,2070,36C2100,30,2130,60,2145,75L2160,90L2160,180L2145,180C2130,180,2100,180,2070,180C2040,180,2010,180,1980,180C1950,180,1920,180,1890,180C1860,180,1830,180,1800,180C1770,180,1740,180,1710,180C1680,180,1650,180,1620,180C1590,180,1560,180,1530,180C1500,180,1470,180,1440,180C1410,180,1380,180,1350,180C1320,180,1290,180,1260,180C1230,180,1200,180,1170,180C1140,180,1110,180,1080,180C1050,180,1020,180,990,180C960,180,930,180,900,180C870,180,840,180,810,180C780,180,750,180,720,180C690,180,660,180,630,180C600,180,570,180,540,180C510,180,480,180,450,180C420,180,390,180,360,180C330,180,300,180,270,180C240,180,210,180,180,180C150,180,120,180,90,180C60,180,30,180,15,180L0,180Z"/></svg>