<?xml version="1.0" standalone="no"?><svg xmlns="http://www.w3.org/2000/svg" viewBox="0 0 1440 320"><path fill="#ffd700" fill-opacity="0.8" d="M0,256L30,256C60,256,120,256,180,256C240,256,300,256,360,266.7C420,277,480,299,540,277.3C600,256,660,192,720,176C780,160,840,192,900,208C960,224,1020,224,1080,240C1140,256,1200,288,1260,288C1320,288,1380,256,1410,240L1440,224L1440,320L1410,320C1380,320,1320,320,1260,320C1200,320,1140,320,1080,320C1020,320,960,320,900,320C840,320,780,320,720,320C660,320,600,320,540,320C480,320,420,320,360,320C300,320,240,320,180,320C120,320,60,320,30,320L0,320Z"></path></svg>