<?xml version="1.0" standalone="no"?><svg xmlns="http://www.w3.org/2000/svg" viewBox="0 0 1440 320"><path fill="#ffd700" fill-opacity="0.8" d="M0,256L30,256C60,256,120,256,180,224C240,192,300,128,360,122.7C420,117,480,171,540,186.7C600,203,660,181,720,160C780,139,840,117,900,138.7C960,160,1020,224,1080,224C1140,224,1200,160,1260,144C1320,128,1380,160,1410,176L1440,192L1440,320L1410,320C1380,320,1320,320,1260,320C1200,320,1140,320,1080,320C1020,320,960,320,900,320C840,320,780,320,720,320C660,320,600,320,540,320C480,320,420,320,360,320C300,320,240,320,180,320C120,320,60,320,30,320L0,320Z"></path></svg>