<?xml version="1.0" standalone="no"?><svg xmlns="http://www.w3.org/2000/svg" viewBox="0 0 1440 320"><path fill="#ffd700" fill-opacity="0.8" d="M0,256L21.8,256C43.6,256,87,256,131,229.3C174.5,203,218,149,262,154.7C305.5,160,349,224,393,250.7C436.4,277,480,267,524,240C567.3,213,611,171,655,181.3C698.2,192,742,256,785,282.7C829.1,309,873,299,916,261.3C960,224,1004,160,1047,160C1090.9,160,1135,224,1178,256C1221.8,288,1265,288,1309,245.3C1352.7,203,1396,117,1418,74.7L1440,32L1440,320L1418.2,320C1396.4,320,1353,320,1309,320C1265.5,320,1222,320,1178,320C1134.5,320,1091,320,1047,320C1003.6,320,960,320,916,320C872.7,320,829,320,785,320C741.8,320,698,320,655,320C610.9,320,567,320,524,320C480,320,436,320,393,320C349.1,320,305,320,262,320C218.2,320,175,320,131,320C87.3,320,44,320,22,320L0,320Z"></path></svg>