<?xml version="1.0" standalone="no"?>
<svg xmlns:xlink="http://www.w3.org/1999/xlink" id="wave" style="transform:rotate(0deg); transition: 0.3s" viewBox="0 0 1440 100" version="1.1" xmlns="http://www.w3.org/2000/svg"><defs><linearGradient id="sw-gradient-0" x1="0" x2="0" y1="1" y2="0"><stop stop-color="rgba(255, 217, 0, 0.63)" offset="0%"/><stop stop-color="rgba(255, 217, 0, 0.8235294117647058)" offset="100%"/></linearGradient></defs><path style="transform:translate(0, 0px); opacity:1" fill="url(#sw-gradient-0)" d="M0,30L34.3,36.7C68.6,43,137,57,206,56.7C274.3,57,343,43,411,43.3C480,43,549,57,617,53.3C685.7,50,754,30,823,31.7C891.4,33,960,57,1029,56.7C1097.1,57,1166,33,1234,28.3C1302.9,23,1371,37,1440,35C1508.6,33,1577,17,1646,11.7C1714.3,7,1783,13,1851,21.7C1920,30,1989,40,2057,45C2125.7,50,2194,50,2263,45C2331.4,40,2400,30,2469,31.7C2537.1,33,2606,47,2674,48.3C2742.9,50,2811,40,2880,40C2948.6,40,3017,50,3086,48.3C3154.3,47,3223,33,3291,23.3C3360,13,3429,7,3497,13.3C3565.7,20,3634,40,3703,53.3C3771.4,67,3840,73,3909,70C3977.1,67,4046,53,4114,46.7C4182.9,40,4251,40,4320,46.7C4388.6,53,4457,67,4526,65C4594.3,63,4663,47,4731,45C4800,43,4869,57,4903,63.3L4937.1,70L4937.1,100L4902.9,100C4868.6,100,4800,100,4731,100C4662.9,100,4594,100,4526,100C4457.1,100,4389,100,4320,100C4251.4,100,4183,100,4114,100C4045.7,100,3977,100,3909,100C3840,100,3771,100,3703,100C3634.3,100,3566,100,3497,100C3428.6,100,3360,100,3291,100C3222.9,100,3154,100,3086,100C3017.1,100,2949,100,2880,100C2811.4,100,2743,100,2674,100C2605.7,100,2537,100,2469,100C2400,100,2331,100,2263,100C2194.3,100,2126,100,2057,100C1988.6,100,1920,100,1851,100C1782.9,100,1714,100,1646,100C1577.1,100,1509,100,1440,100C1371.4,100,1303,100,1234,100C1165.7,100,1097,100,1029,100C960,100,891,100,823,100C754.3,100,686,100,617,100C548.6,100,480,100,411,100C342.9,100,274,100,206,100C137.1,100,69,100,34,100L0,100Z"/></svg>