<?xml version="1.0" standalone="no"?><svg xmlns="http://www.w3.org/2000/svg" viewBox="0 0 1440 320"><path fill="#ffd700" fill-opacity="0.8" d="M0,192L11.4,165.3C22.9,139,46,85,69,80C91.4,75,114,117,137,149.3C160,181,183,203,206,192C228.6,181,251,139,274,144C297.1,149,320,203,343,213.3C365.7,224,389,192,411,186.7C434.3,181,457,203,480,192C502.9,181,526,139,549,144C571.4,149,594,203,617,234.7C640,267,663,277,686,266.7C708.6,256,731,224,754,213.3C777.1,203,800,213,823,229.3C845.7,245,869,267,891,261.3C914.3,256,937,224,960,208C982.9,192,1006,192,1029,208C1051.4,224,1074,256,1097,256C1120,256,1143,224,1166,224C1188.6,224,1211,256,1234,229.3C1257.1,203,1280,117,1303,96C1325.7,75,1349,117,1371,144C1394.3,171,1417,181,1429,186.7L1440,192L1440,320L1428.6,320C1417.1,320,1394,320,1371,320C1348.6,320,1326,320,1303,320C1280,320,1257,320,1234,320C1211.4,320,1189,320,1166,320C1142.9,320,1120,320,1097,320C1074.3,320,1051,320,1029,320C1005.7,320,983,320,960,320C937.1,320,914,320,891,320C868.6,320,846,320,823,320C800,320,777,320,754,320C731.4,320,709,320,686,320C662.9,320,640,320,617,320C594.3,320,571,320,549,320C525.7,320,503,320,480,320C457.1,320,434,320,411,320C388.6,320,366,320,343,320C320,320,297,320,274,320C251.4,320,229,320,206,320C182.9,320,160,320,137,320C114.3,320,91,320,69,320C45.7,320,23,320,11,320L0,320Z"></path></svg>